<?xml version="1.0" standalone="no"?>
 <!DOCTYPE svg PUBLIC "-//W3C//DTD SVG 1.1//EN" 
 "http://www.w3.org/Graphics/SVG/1.1/DTD/svg11.dtd"> 
<svg
  xmlns:svg="http://www.w3.org/2000/svg"
  xmlns="http://www.w3.org/2000/svg"
  xmlns:xlink="http://www.w3.org/1999/xlink"
  version="1.1"
  width="29.700220cm" height="21.000720cm" viewBox="0 0 116930 82680">
<title>SVG Picture created as oven_pcb-B_Cu.svg date 2021/10/30 20:47:34 </title>
  <desc>Picture generated by PCBNEW </desc>
<g style="fill:#000000; fill-opacity:1;stroke:#000000; stroke-opacity:1;
stroke-linecap:round; stroke-linejoin:round;"
 transform="translate(0 0) scale(1 1)">
</g>
<g style="fill:#000000; fill-opacity:0.0; 
stroke:#000000; stroke-width:-0.000393701; stroke-opacity:1; 
stroke-linecap:round; stroke-linejoin:round;">
</g>
<g style="fill:#000000; fill-opacity:0.0; 
stroke:#000000; stroke-width:59.0551; stroke-opacity:1; 
stroke-linecap:round; stroke-linejoin:round;">
<path d="M37000 30000
L37000 29000
" />
<path d="M41000 30000
L37000 30000
" />
<path d="M41000 29000
L41000 30000
" />
<path d="M37000 29000
L41000 29000
" />
</g>
<g style="fill:#000000; fill-opacity:0.0; 
stroke:#000000; stroke-width:118.11; stroke-opacity:1; 
stroke-linecap:round; stroke-linejoin:round;">
<text x="39000" y="29795.3"
transform="scale(-1 1) translate(-78000.000000 0)"
textLength="2566.65" font-size="787.402" lengthAdjust="spacingAndGlyphs"
text-anchor="middle" opacity="0">R 10k</text>
<path d="M39843 29767
L40040 29485
" />
<path d="M40181 29767
L40181 29176
L39956 29176
L39899 29204
L39871 29232
L39843 29289
L39843 29373
L39871 29429
L39899 29457
L39956 29485
L40181 29485
" />
<path d="M38831 29767
L39168 29767
" />
<path d="M39000 29767
L39000 29176
L39056 29260
L39112 29317
L39168 29345
" />
<path d="M38465 29176
L38409 29176
L38353 29204
L38325 29232
L38296 29289
L38268 29401
L38268 29542
L38296 29654
L38325 29710
L38353 29739
L38409 29767
L38465 29767
L38521 29739
L38550 29710
L38578 29654
L38606 29542
L38606 29401
L38578 29289
L38550 29232
L38521 29204
L38465 29176
" />
<path d="M38015 29767
L38015 29176
" />
<path d="M37959 29542
L37790 29767
" />
<path d="M37790 29373
L38015 29598
" />
<g transform="rotate(-90 41000 26000)">
<text x="41000" y="26295.3"
transform="scale(-1 1) translate(-82000.000000 0)"
textLength="577.615" font-size="787.402" lengthAdjust="spacingAndGlyphs"
text-anchor="middle" opacity="0">-</text>
</g>
<path d="M41042 25775
L41042 26224
" />
<g transform="rotate(-90 41000 27000)">
<text x="41000" y="27295.3"
transform="scale(-1 1) translate(-82000.000000 0)"
textLength="577.615" font-size="787.402" lengthAdjust="spacingAndGlyphs"
text-anchor="middle" opacity="0">+</text>
</g>
<path d="M41042 26775
L41042 27224
" />
<path d="M41267 27000
L40817 27000
" />
<g transform="rotate(-90 39000 26500)">
<text x="39000" y="26795.3"
transform="scale(-1 1) translate(-78000.000000 0)"
textLength="1561.87" font-size="787.402" lengthAdjust="spacingAndGlyphs"
text-anchor="middle" opacity="0">SSR</text>
</g>
<path d="M39239 25754
L39267 25839
L39267 25979
L39239 26035
L39210 26064
L39154 26092
L39098 26092
L39042 26064
L39014 26035
L38985 25979
L38957 25867
L38929 25811
L38901 25782
L38845 25754
L38789 25754
L38732 25782
L38704 25811
L38676 25867
L38676 26007
L38704 26092
" />
<path d="M39239 26317
L39267 26401
L39267 26542
L39239 26598
L39210 26626
L39154 26654
L39098 26654
L39042 26626
L39014 26598
L38985 26542
L38957 26429
L38929 26373
L38901 26345
L38845 26317
L38789 26317
L38732 26345
L38704 26373
L38676 26429
L38676 26570
L38704 26654
" />
<path d="M39267 27245
L38985 27048
" />
<path d="M39267 26907
L38676 26907
L38676 27132
L38704 27188
L38732 27217
L38789 27245
L38873 27245
L38929 27217
L38957 27188
L38985 27132
L38985 26907
" />
<g transform="rotate(-90 39000 37500)">
<text x="39000" y="37795.3"
transform="scale(-1 1) translate(-78000.000000 0)"
textLength="6005.06" font-size="787.402" lengthAdjust="spacingAndGlyphs"
text-anchor="middle" opacity="0">BME 280 BUS</text>
</g>
<path d="M38957 34758
L38985 34842
L39014 34870
L39070 34898
L39154 34898
L39210 34870
L39239 34842
L39267 34786
L39267 34561
L38676 34561
L38676 34758
L38704 34814
L38732 34842
L38789 34870
L38845 34870
L38901 34842
L38929 34814
L38957 34758
L38957 34561
" />
<path d="M39267 35151
L38676 35151
L39098 35348
L38676 35545
L39267 35545
" />
<path d="M38957 35826
L38957 36023
" />
<path d="M39267 36107
L39267 35826
L38676 35826
L38676 36107
" />
<path d="M38732 36782
L38704 36811
L38676 36867
L38676 37007
L38704 37064
L38732 37092
L38789 37120
L38845 37120
L38929 37092
L39267 36754
L39267 37120
" />
<path d="M38929 37457
L38901 37401
L38873 37373
L38817 37345
L38789 37345
L38732 37373
L38704 37401
L38676 37457
L38676 37570
L38704 37626
L38732 37654
L38789 37682
L38817 37682
L38873 37654
L38901 37626
L38929 37570
L38929 37457
L38957 37401
L38985 37373
L39042 37345
L39154 37345
L39210 37373
L39239 37401
L39267 37457
L39267 37570
L39239 37626
L39210 37654
L39154 37682
L39042 37682
L38985 37654
L38957 37626
L38929 37570
" />
<path d="M38676 38048
L38676 38104
L38704 38160
L38732 38188
L38789 38217
L38901 38245
L39042 38245
L39154 38217
L39210 38188
L39239 38160
L39267 38104
L39267 38048
L39239 37992
L39210 37964
L39154 37935
L39042 37907
L38901 37907
L38789 37935
L38732 37964
L38704 37992
L38676 38048
" />
<path d="M38957 39145
L38985 39229
L39014 39257
L39070 39285
L39154 39285
L39210 39257
L39239 39229
L39267 39173
L39267 38948
L38676 38948
L38676 39145
L38704 39201
L38732 39229
L38789 39257
L38845 39257
L38901 39229
L38929 39201
L38957 39145
L38957 38948
" />
<path d="M38676 39538
L39154 39538
L39210 39566
L39239 39595
L39267 39651
L39267 39763
L39239 39820
L39210 39848
L39154 39876
L38676 39876
" />
<path d="M39239 40129
L39267 40213
L39267 40354
L39239 40410
L39210 40438
L39154 40466
L39098 40466
L39042 40438
L39014 40410
L38985 40354
L38957 40241
L38929 40185
L38901 40157
L38845 40129
L38789 40129
L38732 40157
L38704 40185
L38676 40241
L38676 40382
L38704 40466
" />
<g transform="rotate(-90 39000 32500)">
<text x="39000" y="32795.3"
transform="scale(-1 1) translate(-78000.000000 0)"
textLength="1505.62" font-size="787.402" lengthAdjust="spacingAndGlyphs"
text-anchor="middle" opacity="0">NTC</text>
</g>
<path d="M39267 31811
L38676 31811
L39267 32148
L38676 32148
" />
<path d="M38676 32345
L38676 32682
" />
<path d="M39267 32514
L38676 32514
" />
<path d="M39210 33217
L39239 33188
L39267 33104
L39267 33048
L39239 32964
L39182 32907
L39126 32879
L39014 32851
L38929 32851
L38817 32879
L38760 32907
L38704 32964
L38676 33048
L38676 33104
L38704 33188
L38732 33217
" />
</g>
<g style="fill:#000000; fill-opacity:0.0; 
stroke:#000000; stroke-width:59.0551; stroke-opacity:1; 
stroke-linecap:round; stroke-linejoin:round;">
<g transform="rotate(-90 37000 45000)">
<text x="37000" y="45196.9"
transform="scale(-1 1) translate(-74000.000000 0)"
textLength="2921.07" font-size="524.934" lengthAdjust="spacingAndGlyphs"
text-anchor="middle" opacity="0">24V-&gt;5V </text>
</g>
<path d="M36821 43537
L36803 43556
L36784 43593
L36784 43687
L36803 43725
L36821 43743
L36859 43762
L36896 43762
L36953 43743
L37178 43518
L37178 43762
" />
<path d="M36915 44100
L37178 44100
" />
<path d="M36765 44006
L37046 43912
L37046 44156
" />
<path d="M36784 44250
L37178 44381
L36784 44512
" />
<path d="M37028 44643
L37028 44943
" />
<path d="M36915 45131
L37028 45431
L37140 45131
" />
<path d="M36784 45806
L36784 45618
L36971 45599
L36953 45618
L36934 45656
L36934 45749
L36953 45787
L36971 45806
L37009 45824
L37103 45824
L37140 45806
L37159 45787
L37178 45749
L37178 45656
L37159 45618
L37140 45599
" />
<path d="M36784 45937
L37178 46068
L36784 46199
" />
<text x="40000" y="43196.9"
transform="scale(-1 1) translate(-80000.000000 0)"
textLength="2397.92" font-size="524.934" lengthAdjust="spacingAndGlyphs"
text-anchor="middle" opacity="0">VOUT 5V</text>
<path d="M41199 42784
L41068 43178
L40937 42784
" />
<path d="M40731 42784
L40656 42784
L40618 42803
L40581 42840
L40562 42915
L40562 43046
L40581 43121
L40618 43159
L40656 43178
L40731 43178
L40768 43159
L40806 43121
L40824 43046
L40824 42915
L40806 42840
L40768 42803
L40731 42784
" />
<path d="M40393 42784
L40393 43103
L40374 43140
L40356 43159
L40318 43178
L40243 43178
L40206 43159
L40187 43140
L40168 43103
L40168 42784
" />
<path d="M40037 42784
L39812 42784
" />
<path d="M39925 43178
L39925 42784
" />
<path d="M39193 42784
L39381 42784
L39400 42971
L39381 42953
L39343 42934
L39250 42934
L39212 42953
L39193 42971
L39175 43009
L39175 43103
L39193 43140
L39212 43159
L39250 43178
L39343 43178
L39381 43159
L39400 43140
" />
<path d="M39062 42784
L38931 43178
L38800 42784
" />
<text x="40500" y="44196.9"
transform="scale(-1 1) translate(-81000.000000 0)"
textLength="1123.08" font-size="524.934" lengthAdjust="spacingAndGlyphs"
text-anchor="middle" opacity="0">GND</text>
<path d="M40799 43803
L40837 43784
L40893 43784
L40949 43803
L40987 43840
L41006 43878
L41024 43953
L41024 44009
L41006 44084
L40987 44121
L40949 44159
L40893 44178
L40856 44178
L40799 44159
L40781 44140
L40781 44009
L40856 44009
" />
<path d="M40612 44178
L40612 43784
L40387 44178
L40387 43784
" />
<path d="M40200 44178
L40200 43784
L40106 43784
L40050 43803
L40012 43840
L39993 43878
L39975 43953
L39975 44009
L39993 44084
L40012 44121
L40050 44159
L40106 44178
L40200 44178
" />
<text x="40500" y="45196.9"
transform="scale(-1 1) translate(-81000.000000 0)"
textLength="860.611" font-size="524.934" lengthAdjust="spacingAndGlyphs"
text-anchor="middle" opacity="0">VIN</text>
<path d="M40931 44784
L40799 45178
L40668 44784
" />
<path d="M40537 45178
L40537 44784
" />
<path d="M40350 45178
L40350 44784
L40125 45178
L40125 44784
" />
<text x="40500" y="46196.9"
transform="scale(-1 1) translate(-81000.000000 0)"
textLength="1516.78" font-size="524.934" lengthAdjust="spacingAndGlyphs"
text-anchor="middle" opacity="0">SHDN</text>
<path d="M41221 46159
L41165 46178
L41071 46178
L41034 46159
L41015 46140
L40996 46103
L40996 46065
L41015 46028
L41034 46009
L41071 45990
L41146 45971
L41184 45953
L41203 45934
L41221 45896
L41221 45859
L41203 45821
L41184 45803
L41146 45784
L41053 45784
L40996 45803
" />
<path d="M40828 46178
L40828 45784
" />
<path d="M40828 45971
L40603 45971
" />
<path d="M40603 46178
L40603 45784
" />
<path d="M40415 46178
L40415 45784
L40321 45784
L40265 45803
L40228 45840
L40209 45878
L40190 45953
L40190 46009
L40209 46084
L40228 46121
L40265 46159
L40321 46178
L40415 46178
" />
<path d="M40021 46178
L40021 45784
L39796 46178
L39796 45784
" />
<text x="40500" y="47196.9"
transform="scale(-1 1) translate(-81000.000000 0)"
textLength="710.63" font-size="524.934" lengthAdjust="spacingAndGlyphs"
text-anchor="middle" opacity="0">PD</text>
<path d="M40799 47178
L40799 46784
L40649 46784
L40612 46803
L40593 46821
L40574 46859
L40574 46915
L40593 46953
L40612 46971
L40649 46990
L40799 46990
" />
<path d="M40406 47178
L40406 46784
L40312 46784
L40256 46803
L40218 46840
L40200 46878
L40181 46953
L40181 47009
L40200 47084
L40218 47121
L40256 47159
L40312 47178
L40406 47178
" />
</g>
<g style="fill:#000000; fill-opacity:0.0; 
stroke:#000000; stroke-width:196.85; stroke-opacity:1; 
stroke-linecap:round; stroke-linejoin:round;">
<g transform="rotate(-90 50500 36000)">
<text x="50500" y="36590.6"
transform="scale(-1 1) translate(-101000.000000 0)"
textLength="11003.1" font-size="1574.8" lengthAdjust="spacingAndGlyphs"
text-anchor="middle" opacity="0">NodeMCU v3</text>
</g>
<path d="M51034 30741
L49853 30741
L51034 31416
L49853 31416
" />
<path d="M51034 32147
L50978 32034
L50921 31978
L50809 31922
L50471 31922
L50359 31978
L50303 32034
L50246 32147
L50246 32316
L50303 32428
L50359 32484
L50471 32541
L50809 32541
L50921 32484
L50978 32428
L51034 32316
L51034 32147
" />
<path d="M51034 33553
L49853 33553
" />
<path d="M50978 33553
L51034 33440
L51034 33215
L50978 33103
L50921 33047
L50809 32991
L50471 32991
L50359 33047
L50303 33103
L50246 33215
L50246 33440
L50303 33553
" />
<path d="M50978 34565
L51034 34453
L51034 34228
L50978 34115
L50865 34059
L50415 34059
L50303 34115
L50246 34228
L50246 34453
L50303 34565
L50415 34622
L50528 34622
L50640 34059
" />
<path d="M51034 35128
L49853 35128
L50696 35521
L49853 35915
L51034 35915
" />
<path d="M50921 37152
L50978 37096
L51034 36928
L51034 36815
L50978 36646
L50865 36534
L50753 36478
L50528 36421
L50359 36421
L50134 36478
L50021 36534
L49909 36646
L49853 36815
L49853 36928
L49909 37096
L49965 37152
" />
<path d="M49853 37659
L50809 37659
L50921 37715
L50978 37771
L51034 37884
L51034 38109
L50978 38221
L50921 38277
L50809 38334
L49853 38334
" />
<path d="M50246 39683
L51034 39965
L50246 40246
" />
<path d="M49853 40583
L49853 41314
L50303 40921
L50303 41089
L50359 41202
L50415 41258
L50528 41314
L50809 41314
L50921 41258
L50978 41202
L51034 41089
L51034 40752
L50978 40640
L50921 40583
" />
</g>
<g style="fill:#000000; fill-opacity:0.0; 
stroke:#000000; stroke-width:59.0551; stroke-opacity:1; 
stroke-linecap:round; stroke-linejoin:round;">
<text x="54500" y="43196.9"
transform="scale(-1 1) translate(-109000.000000 0)"
textLength="456.506" font-size="524.934" lengthAdjust="spacingAndGlyphs"
text-anchor="middle" opacity="0">3V</text>
<path d="M54799 42784
L54556 42784
L54687 42934
L54631 42934
L54593 42953
L54574 42971
L54556 43009
L54556 43103
L54574 43140
L54593 43159
L54631 43178
L54743 43178
L54781 43159
L54799 43140
" />
<path d="M54443 42784
L54312 43178
L54181 42784
" />
<text x="54500" y="42196.9"
transform="scale(-1 1) translate(-109000.000000 0)"
textLength="1123.08" font-size="524.934" lengthAdjust="spacingAndGlyphs"
text-anchor="middle" opacity="0">GND</text>
<path d="M54799 41803
L54837 41784
L54893 41784
L54949 41803
L54987 41840
L55006 41878
L55024 41953
L55024 42009
L55006 42084
L54987 42121
L54949 42159
L54893 42178
L54856 42178
L54799 42159
L54781 42140
L54781 42009
L54856 42009
" />
<path d="M54612 42178
L54612 41784
L54387 42178
L54387 41784
" />
<path d="M54200 42178
L54200 41784
L54106 41784
L54050 41803
L54012 41840
L53993 41878
L53975 41953
L53975 42009
L53993 42084
L54012 42121
L54050 42159
L54106 42178
L54200 42178
" />
<text x="54500" y="41196.9"
transform="scale(-1 1) translate(-109000.000000 0)"
textLength="598.144" font-size="524.934" lengthAdjust="spacingAndGlyphs"
text-anchor="middle" opacity="0">TX</text>
<path d="M54799 40784
L54574 40784
" />
<path d="M54687 41178
L54687 40784
" />
<path d="M54481 40784
L54218 41178
" />
<path d="M54218 40784
L54481 41178
" />
<text x="54500" y="40196.9"
transform="scale(-1 1) translate(-109000.000000 0)"
textLength="691.882" font-size="524.934" lengthAdjust="spacingAndGlyphs"
text-anchor="middle" opacity="0">RX</text>
<path d="M54565 40178
L54696 39990
" />
<path d="M54790 40178
L54790 39784
L54640 39784
L54603 39803
L54584 39821
L54565 39859
L54565 39915
L54584 39953
L54603 39971
L54640 39990
L54790 39990
" />
<path d="M54434 39784
L54171 40178
" />
<path d="M54171 39784
L54434 40178
" />
<text x="54500" y="37196.9"
transform="scale(-1 1) translate(-109000.000000 0)"
textLength="691.882" font-size="524.934" lengthAdjust="spacingAndGlyphs"
text-anchor="middle" opacity="0">D6</text>
<path d="M54790 37178
L54790 36784
L54696 36784
L54640 36803
L54603 36840
L54584 36878
L54565 36953
L54565 37009
L54584 37084
L54603 37121
L54640 37159
L54696 37178
L54790 37178
" />
<path d="M54228 36784
L54303 36784
L54340 36803
L54359 36821
L54396 36878
L54415 36953
L54415 37103
L54396 37140
L54378 37159
L54340 37178
L54265 37178
L54228 37159
L54209 37140
L54190 37103
L54190 37009
L54209 36971
L54228 36953
L54265 36934
L54340 36934
L54378 36953
L54396 36971
L54415 37009
" />
<text x="54500" y="35196.9"
transform="scale(-1 1) translate(-109000.000000 0)"
textLength="1123.08" font-size="524.934" lengthAdjust="spacingAndGlyphs"
text-anchor="middle" opacity="0">GND</text>
<path d="M54799 34803
L54837 34784
L54893 34784
L54949 34803
L54987 34840
L55006 34878
L55024 34953
L55024 35009
L55006 35084
L54987 35121
L54949 35159
L54893 35178
L54856 35178
L54799 35159
L54781 35140
L54781 35009
L54856 35009
" />
<path d="M54612 35178
L54612 34784
L54387 35178
L54387 34784
" />
<path d="M54200 35178
L54200 34784
L54106 34784
L54050 34803
L54012 34840
L53993 34878
L53975 34953
L53975 35009
L53993 35084
L54012 35121
L54050 35159
L54106 35178
L54200 35178
" />
<text x="54500" y="38196.9"
transform="scale(-1 1) translate(-109000.000000 0)"
textLength="691.882" font-size="524.934" lengthAdjust="spacingAndGlyphs"
text-anchor="middle" opacity="0">D7</text>
<path d="M54790 38178
L54790 37784
L54696 37784
L54640 37803
L54603 37840
L54584 37878
L54565 37953
L54565 38009
L54584 38084
L54603 38121
L54640 38159
L54696 38178
L54790 38178
" />
<path d="M54434 37784
L54171 37784
L54340 38178
" />
<text x="54500" y="39196.9"
transform="scale(-1 1) translate(-109000.000000 0)"
textLength="691.882" font-size="524.934" lengthAdjust="spacingAndGlyphs"
text-anchor="middle" opacity="0">D8</text>
<path d="M54790 39178
L54790 38784
L54696 38784
L54640 38803
L54603 38840
L54584 38878
L54565 38953
L54565 39009
L54584 39084
L54603 39121
L54640 39159
L54696 39178
L54790 39178
" />
<path d="M54340 38953
L54378 38934
L54396 38915
L54415 38878
L54415 38859
L54396 38821
L54378 38803
L54340 38784
L54265 38784
L54228 38803
L54209 38821
L54190 38859
L54190 38878
L54209 38915
L54228 38934
L54265 38953
L54340 38953
L54378 38971
L54396 38990
L54415 39028
L54415 39103
L54396 39140
L54378 39159
L54340 39178
L54265 39178
L54228 39159
L54209 39140
L54190 39103
L54190 39028
L54209 38990
L54228 38971
L54265 38953
" />
<text x="54500" y="36196.9"
transform="scale(-1 1) translate(-109000.000000 0)"
textLength="691.882" font-size="524.934" lengthAdjust="spacingAndGlyphs"
text-anchor="middle" opacity="0">D5</text>
<path d="M54790 36178
L54790 35784
L54696 35784
L54640 35803
L54603 35840
L54584 35878
L54565 35953
L54565 36009
L54584 36084
L54603 36121
L54640 36159
L54696 36178
L54790 36178
" />
<path d="M54209 35784
L54396 35784
L54415 35971
L54396 35953
L54359 35934
L54265 35934
L54228 35953
L54209 35971
L54190 36009
L54190 36103
L54209 36140
L54228 36159
L54265 36178
L54359 36178
L54396 36159
L54415 36140
" />
<text x="54500" y="32196.9"
transform="scale(-1 1) translate(-109000.000000 0)"
textLength="691.882" font-size="524.934" lengthAdjust="spacingAndGlyphs"
text-anchor="middle" opacity="0">D3</text>
<path d="M54790 32178
L54790 31784
L54696 31784
L54640 31803
L54603 31840
L54584 31878
L54565 31953
L54565 32009
L54584 32084
L54603 32121
L54640 32159
L54696 32178
L54790 32178
" />
<path d="M54434 31784
L54190 31784
L54321 31934
L54265 31934
L54228 31953
L54209 31971
L54190 32009
L54190 32103
L54209 32140
L54228 32159
L54265 32178
L54378 32178
L54415 32159
L54434 32140
" />
<text x="54500" y="34196.9"
transform="scale(-1 1) translate(-109000.000000 0)"
textLength="635.639" font-size="524.934" lengthAdjust="spacingAndGlyphs"
text-anchor="middle" opacity="0">3V</text>
<path d="M54799 33784
L54556 33784
L54687 33934
L54631 33934
L54593 33953
L54574 33971
L54556 34009
L54556 34103
L54574 34140
L54593 34159
L54631 34178
L54743 34178
L54781 34159
L54799 34140
" />
<path d="M54443 33784
L54312 34178
L54181 33784
" />
<text x="54500" y="33196.9"
transform="scale(-1 1) translate(-109000.000000 0)"
textLength="691.882" font-size="524.934" lengthAdjust="spacingAndGlyphs"
text-anchor="middle" opacity="0">D4</text>
<path d="M54790 33178
L54790 32784
L54696 32784
L54640 32803
L54603 32840
L54584 32878
L54565 32953
L54565 33009
L54584 33084
L54603 33121
L54640 33159
L54696 33178
L54790 33178
" />
<path d="M54228 32915
L54228 33178
" />
<path d="M54321 32765
L54415 33046
L54171 33046
" />
<text x="54500" y="31196.9"
transform="scale(-1 1) translate(-109000.000000 0)"
textLength="691.882" font-size="524.934" lengthAdjust="spacingAndGlyphs"
text-anchor="middle" opacity="0">D2</text>
<path d="M54790 31178
L54790 30784
L54696 30784
L54640 30803
L54603 30840
L54584 30878
L54565 30953
L54565 31009
L54584 31084
L54603 31121
L54640 31159
L54696 31178
L54790 31178
" />
<path d="M54415 30821
L54396 30803
L54359 30784
L54265 30784
L54228 30803
L54209 30821
L54190 30859
L54190 30896
L54209 30953
L54434 31178
L54190 31178
" />
<text x="54500" y="30196.9"
transform="scale(-1 1) translate(-109000.000000 0)"
textLength="691.882" font-size="524.934" lengthAdjust="spacingAndGlyphs"
text-anchor="middle" opacity="0">D1</text>
<path d="M54790 30178
L54790 29784
L54696 29784
L54640 29803
L54603 29840
L54584 29878
L54565 29953
L54565 30009
L54584 30084
L54603 30121
L54640 30159
L54696 30178
L54790 30178
" />
<path d="M54190 30178
L54415 30178
" />
<path d="M54303 30178
L54303 29784
L54340 29840
L54378 29878
L54415 29896
" />
<text x="54500" y="29196.9"
transform="scale(-1 1) translate(-109000.000000 0)"
textLength="691.882" font-size="524.934" lengthAdjust="spacingAndGlyphs"
text-anchor="middle" opacity="0">D0</text>
<path d="M54790 29178
L54790 28784
L54696 28784
L54640 28803
L54603 28840
L54584 28878
L54565 28953
L54565 29009
L54584 29084
L54603 29121
L54640 29159
L54696 29178
L54790 29178
" />
<path d="M54321 28784
L54284 28784
L54246 28803
L54228 28821
L54209 28859
L54190 28934
L54190 29028
L54209 29103
L54228 29140
L54246 29159
L54284 29178
L54321 29178
L54359 29159
L54378 29140
L54396 29103
L54415 29028
L54415 28934
L54396 28859
L54378 28821
L54359 28803
L54321 28784
" />
<text x="46500" y="43196.9"
transform="scale(-1 1) translate(-93000.000000 0)"
textLength="1872.98" font-size="524.934" lengthAdjust="spacingAndGlyphs"
text-anchor="middle" opacity="0">VIN 5V</text>
<path d="M47437 42784
L47306 43178
L47174 42784
" />
<path d="M47043 43178
L47043 42784
" />
<path d="M46856 43178
L46856 42784
L46631 43178
L46631 42784
" />
<path d="M45956 42784
L46143 42784
L46162 42971
L46143 42953
L46106 42934
L46012 42934
L45975 42953
L45956 42971
L45937 43009
L45937 43103
L45956 43140
L45975 43159
L46012 43178
L46106 43178
L46143 43159
L46162 43140
" />
<path d="M45825 42784
L45693 43178
L45562 42784
" />
<text x="46500" y="41196.9"
transform="scale(-1 1) translate(-93000.000000 0)"
textLength="991.845" font-size="524.934" lengthAdjust="spacingAndGlyphs"
text-anchor="middle" opacity="0">RST</text>
<path d="M46715 41178
L46846 40990
" />
<path d="M46940 41178
L46940 40784
L46790 40784
L46753 40803
L46734 40821
L46715 40859
L46715 40915
L46734 40953
L46753 40971
L46790 40990
L46940 40990
" />
<path d="M46565 41159
L46509 41178
L46415 41178
L46378 41159
L46359 41140
L46340 41103
L46340 41065
L46359 41028
L46378 41009
L46415 40990
L46490 40971
L46528 40953
L46546 40934
L46565 40896
L46565 40859
L46546 40821
L46528 40803
L46490 40784
L46396 40784
L46340 40803
" />
<path d="M46228 40784
L46003 40784
" />
<path d="M46115 41178
L46115 40784
" />
<text x="46500" y="42196.9"
transform="scale(-1 1) translate(-93000.000000 0)"
textLength="1123.08" font-size="524.934" lengthAdjust="spacingAndGlyphs"
text-anchor="middle" opacity="0">GND</text>
<path d="M46799 41803
L46837 41784
L46893 41784
L46949 41803
L46987 41840
L47006 41878
L47024 41953
L47024 42009
L47006 42084
L46987 42121
L46949 42159
L46893 42178
L46856 42178
L46799 42159
L46781 42140
L46781 42009
L46856 42009
" />
<path d="M46612 42178
L46612 41784
L46387 42178
L46387 41784
" />
<path d="M46200 42178
L46200 41784
L46106 41784
L46050 41803
L46012 41840
L45993 41878
L45975 41953
L45975 42009
L45993 42084
L46012 42121
L46050 42159
L46106 42178
L46200 42178
" />
<text x="46500" y="38196.9"
transform="scale(-1 1) translate(-93000.000000 0)"
textLength="1123.08" font-size="524.934" lengthAdjust="spacingAndGlyphs"
text-anchor="middle" opacity="0">GND</text>
<path d="M46799 37803
L46837 37784
L46893 37784
L46949 37803
L46987 37840
L47006 37878
L47024 37953
L47024 38009
L47006 38084
L46987 38121
L46949 38159
L46893 38178
L46856 38178
L46799 38159
L46781 38140
L46781 38009
L46856 38009
" />
<path d="M46612 38178
L46612 37784
L46387 38178
L46387 37784
" />
<path d="M46200 38178
L46200 37784
L46106 37784
L46050 37803
L46012 37840
L45993 37878
L45975 37953
L45975 38009
L45993 38084
L46012 38121
L46050 38159
L46106 38178
L46200 38178
" />
<text x="46500" y="40196.9"
transform="scale(-1 1) translate(-93000.000000 0)"
textLength="691.882" font-size="524.934" lengthAdjust="spacingAndGlyphs"
text-anchor="middle" opacity="0">EN</text>
<path d="M46790 39971
L46659 39971
" />
<path d="M46603 40178
L46790 40178
L46790 39784
L46603 39784
" />
<path d="M46434 40178
L46434 39784
L46209 40178
L46209 39784
" />
<text x="46500" y="39196.9"
transform="scale(-1 1) translate(-93000.000000 0)"
textLength="635.639" font-size="524.934" lengthAdjust="spacingAndGlyphs"
text-anchor="middle" opacity="0">3V</text>
<path d="M46799 38784
L46556 38784
L46687 38934
L46631 38934
L46593 38953
L46574 38971
L46556 39009
L46556 39103
L46574 39140
L46593 39159
L46631 39178
L46743 39178
L46781 39159
L46799 39140
" />
<path d="M46443 38784
L46312 39178
L46181 38784
" />
<text x="46500" y="37196.9"
transform="scale(-1 1) translate(-93000.000000 0)"
textLength="691.882" font-size="524.934" lengthAdjust="spacingAndGlyphs"
text-anchor="middle" opacity="0">SK</text>
<path d="M46809 37159
L46753 37178
L46659 37178
L46621 37159
L46603 37140
L46584 37103
L46584 37065
L46603 37028
L46621 37009
L46659 36990
L46734 36971
L46771 36953
L46790 36934
L46809 36896
L46809 36859
L46790 36821
L46771 36803
L46734 36784
L46640 36784
L46584 36803
" />
<path d="M46415 37178
L46415 36784
" />
<path d="M46190 37178
L46359 36953
" />
<path d="M46190 36784
L46415 37009
" />
<text x="46500" y="36196.9"
transform="scale(-1 1) translate(-93000.000000 0)"
textLength="710.63" font-size="524.934" lengthAdjust="spacingAndGlyphs"
text-anchor="middle" opacity="0">SO</text>
<path d="M46818 36159
L46762 36178
L46668 36178
L46631 36159
L46612 36140
L46593 36103
L46593 36065
L46612 36028
L46631 36009
L46668 35990
L46743 35971
L46781 35953
L46799 35934
L46818 35896
L46818 35859
L46799 35821
L46781 35803
L46743 35784
L46649 35784
L46593 35803
" />
<path d="M46350 35784
L46275 35784
L46237 35803
L46200 35840
L46181 35915
L46181 36046
L46200 36121
L46237 36159
L46275 36178
L46350 36178
L46387 36159
L46425 36121
L46443 36046
L46443 35915
L46425 35840
L46387 35803
L46350 35784
" />
<text x="46500" y="35196.9"
transform="scale(-1 1) translate(-93000.000000 0)"
textLength="691.882" font-size="524.934" lengthAdjust="spacingAndGlyphs"
text-anchor="middle" opacity="0">SC</text>
<path d="M46809 35159
L46753 35178
L46659 35178
L46621 35159
L46603 35140
L46584 35103
L46584 35065
L46603 35028
L46621 35009
L46659 34990
L46734 34971
L46771 34953
L46790 34934
L46809 34896
L46809 34859
L46790 34821
L46771 34803
L46734 34784
L46640 34784
L46584 34803
" />
<path d="M46190 35140
L46209 35159
L46265 35178
L46303 35178
L46359 35159
L46396 35121
L46415 35084
L46434 35009
L46434 34953
L46415 34878
L46396 34840
L46359 34803
L46303 34784
L46265 34784
L46209 34803
L46190 34821
" />
<text x="46500" y="34196.9"
transform="scale(-1 1) translate(-93000.000000 0)"
textLength="673.135" font-size="524.934" lengthAdjust="spacingAndGlyphs"
text-anchor="middle" opacity="0">S1</text>
<path d="M46799 34159
L46743 34178
L46649 34178
L46612 34159
L46593 34140
L46574 34103
L46574 34065
L46593 34028
L46612 34009
L46649 33990
L46724 33971
L46762 33953
L46781 33934
L46799 33896
L46799 33859
L46781 33821
L46762 33803
L46724 33784
L46631 33784
L46574 33803
" />
<path d="M46200 34178
L46425 34178
" />
<path d="M46312 34178
L46312 33784
L46350 33840
L46387 33878
L46425 33896
" />
<text x="46500" y="33196.9"
transform="scale(-1 1) translate(-93000.000000 0)"
textLength="673.135" font-size="524.934" lengthAdjust="spacingAndGlyphs"
text-anchor="middle" opacity="0">S2</text>
<path d="M46799 33159
L46743 33178
L46649 33178
L46612 33159
L46593 33140
L46574 33103
L46574 33065
L46593 33028
L46612 33009
L46649 32990
L46724 32971
L46762 32953
L46781 32934
L46799 32896
L46799 32859
L46781 32821
L46762 32803
L46724 32784
L46631 32784
L46574 32803
" />
<path d="M46425 32821
L46406 32803
L46368 32784
L46275 32784
L46237 32803
L46218 32821
L46200 32859
L46200 32896
L46218 32953
L46443 33178
L46200 33178
" />
<text x="46500" y="32196.9"
transform="scale(-1 1) translate(-93000.000000 0)"
textLength="673.135" font-size="524.934" lengthAdjust="spacingAndGlyphs"
text-anchor="middle" opacity="0">S3</text>
<path d="M46799 32159
L46743 32178
L46649 32178
L46612 32159
L46593 32140
L46574 32103
L46574 32065
L46593 32028
L46612 32009
L46649 31990
L46724 31971
L46762 31953
L46781 31934
L46799 31896
L46799 31859
L46781 31821
L46762 31803
L46724 31784
L46631 31784
L46574 31803
" />
<path d="M46443 31784
L46200 31784
L46331 31934
L46275 31934
L46237 31953
L46218 31971
L46200 32009
L46200 32103
L46218 32140
L46237 32159
L46275 32178
L46387 32178
L46425 32159
L46443 32140
" />
<text x="46500" y="31196.9"
transform="scale(-1 1) translate(-93000.000000 0)"
textLength="598.144" font-size="524.934" lengthAdjust="spacingAndGlyphs"
text-anchor="middle" opacity="0">VV</text>
<path d="M46799 30784
L46668 31178
L46537 30784
" />
<path d="M46462 30784
L46331 31178
L46200 30784
" />
<text x="46500" y="30196.9"
transform="scale(-1 1) translate(-93000.000000 0)"
textLength="1123.08" font-size="524.934" lengthAdjust="spacingAndGlyphs"
text-anchor="middle" opacity="0">GND</text>
<path d="M46799 29803
L46837 29784
L46893 29784
L46949 29803
L46987 29840
L47006 29878
L47024 29953
L47024 30009
L47006 30084
L46987 30121
L46949 30159
L46893 30178
L46856 30178
L46799 30159
L46781 30140
L46781 30009
L46856 30009
" />
<path d="M46612 30178
L46612 29784
L46387 30178
L46387 29784
" />
<path d="M46200 30178
L46200 29784
L46106 29784
L46050 29803
L46012 29840
L45993 29878
L45975 29953
L45975 30009
L45993 30084
L46012 30121
L46050 30159
L46106 30178
L46200 30178
" />
<text x="46500" y="29196.9"
transform="scale(-1 1) translate(-93000.000000 0)"
textLength="635.639" font-size="524.934" lengthAdjust="spacingAndGlyphs"
text-anchor="middle" opacity="0">A0</text>
<path d="M46781 29065
L46593 29065
" />
<path d="M46818 29178
L46687 28784
L46556 29178
" />
<path d="M46350 28784
L46312 28784
L46275 28803
L46256 28821
L46237 28859
L46218 28934
L46218 29028
L46237 29103
L46256 29140
L46275 29159
L46312 29178
L46350 29178
L46387 29159
L46406 29140
L46425 29103
L46443 29028
L46443 28934
L46425 28859
L46406 28821
L46387 28803
L46350 28784
" />
<g >
</g>
<g style="fill:#000000; fill-opacity:1.0; 
stroke:#000000; stroke-width:0; stroke-opacity:1; 
stroke-linecap:round; stroke-linejoin:round;">
<circle cx="42000" cy="43000" r="393.701" /> 
</g>
<g style="fill:#000000; fill-opacity:1.0; 
stroke:#000000; stroke-width:39.3701; stroke-opacity:1; 
stroke-linecap:round; stroke-linejoin:round;">
</g>
<g style="fill:#000000; fill-opacity:1.0; 
stroke:#000000; stroke-width:0; stroke-opacity:1; 
stroke-linecap:round; stroke-linejoin:round;">
<circle cx="42000" cy="44000" r="393.701" /> 
</g>
<g style="fill:#000000; fill-opacity:1.0; 
stroke:#000000; stroke-width:39.3701; stroke-opacity:1; 
stroke-linecap:round; stroke-linejoin:round;">
</g>
<g style="fill:#000000; fill-opacity:1.0; 
stroke:#000000; stroke-width:0; stroke-opacity:1; 
stroke-linecap:round; stroke-linejoin:round;">
<circle cx="42000" cy="45000" r="393.701" /> 
</g>
<g style="fill:#000000; fill-opacity:1.0; 
stroke:#000000; stroke-width:39.3701; stroke-opacity:1; 
stroke-linecap:round; stroke-linejoin:round;">
</g>
<g style="fill:#000000; fill-opacity:1.0; 
stroke:#000000; stroke-width:0; stroke-opacity:1; 
stroke-linecap:round; stroke-linejoin:round;">
<circle cx="42000" cy="46000" r="393.701" /> 
</g>
<g style="fill:#000000; fill-opacity:1.0; 
stroke:#000000; stroke-width:39.3701; stroke-opacity:1; 
stroke-linecap:round; stroke-linejoin:round;">
</g>
<g style="fill:#000000; fill-opacity:1.0; 
stroke:#000000; stroke-width:0; stroke-opacity:1; 
stroke-linecap:round; stroke-linejoin:round;">
<circle cx="42000" cy="47000" r="393.701" /> 
</g>
<g style="fill:#000000; fill-opacity:1.0; 
stroke:#000000; stroke-width:39.3701; stroke-opacity:1; 
stroke-linecap:round; stroke-linejoin:round;">
</g>
<g >
</g>
<g style="fill:#000000; fill-opacity:1.0; 
stroke:#000000; stroke-width:39.3701; stroke-opacity:1; 
stroke-linecap:round; stroke-linejoin:round;">
</g>
<g style="fill:#000000; fill-opacity:1.0; 
stroke:#000000; stroke-width:600; stroke-opacity:1; 
stroke-linecap:round; stroke-linejoin:round;">
</g>
<g style="fill:#000000; fill-opacity:0.0; 
stroke:#000000; stroke-width:600; stroke-opacity:1; 
stroke-linecap:round; stroke-linejoin:round;">
<path d="M55906 43000
L56093 43000
" />
</g>
<g style="fill:#000000; fill-opacity:0.0; 
stroke:#000000; stroke-width:0; stroke-opacity:1; 
stroke-linecap:round; stroke-linejoin:round;">
</g>
<g style="fill:#000000; fill-opacity:1.0; 
stroke:#000000; stroke-width:0; stroke-opacity:1; 
stroke-linecap:round; stroke-linejoin:round;">
<path style="fill:#000000; fill-opacity:1.0; 
stroke:#000000; stroke-width:0; stroke-opacity:1; 
stroke-linecap:round; stroke-linejoin:round;fill-rule:evenodd;"
d="M 56258.4,41700.7
56273,41702.9
56287.2,41706.5
56301.1,41711.4
56314.4,41717.7
56327,41725.3
56338.9,41734
56349.8,41743.9
56359.7,41754.8
56368.4,41766.7
56376,41779.3
56382.3,41792.6
56387.2,41806.5
56390.8,41820.7
56393,41835.3
56393.7,41850
56393.7,42150
56393,42164.7
56390.8,42179.3
56387.2,42193.5
56382.3,42207.4
56376,42220.7
56368.4,42233.3
56359.7,42245.2
56349.8,42256.1
56338.9,42266
56327,42274.7
56314.4,42282.3
56301.1,42288.6
56287.2,42293.5
56273,42297.1
56258.4,42299.3
56243.7,42300
55756.3,42300
55741.6,42299.3
55727,42297.1
55712.8,42293.5
55698.9,42288.6
55685.6,42282.3
55673,42274.7
55661.1,42266
55650.2,42256.1
55640.3,42245.2
55631.6,42233.3
55624,42220.7
55617.7,42207.4
55612.8,42193.5
55609.2,42179.3
55607,42164.7
55606.3,42150
55606.3,41850
55607,41835.3
55609.2,41820.7
55612.8,41806.5
55617.7,41792.6
55624,41779.3
55631.6,41766.7
55640.3,41754.8
55650.2,41743.9
55661.1,41734
55673,41725.3
55685.6,41717.7
55698.9,41711.4
55712.8,41706.5
55727,41702.9
55741.6,41700.7
55756.3,41700
56243.7,41700
Z" /> 
</g>
<g style="fill:#000000; fill-opacity:1.0; 
stroke:#000000; stroke-width:600; stroke-opacity:1; 
stroke-linecap:round; stroke-linejoin:round;">
</g>
<g style="fill:#000000; fill-opacity:0.0; 
stroke:#000000; stroke-width:600; stroke-opacity:1; 
stroke-linecap:round; stroke-linejoin:round;">
<path d="M55906 41000
L56093 41000
" />
<path d="M55906 40000
L56093 40000
" />
<path d="M55906 39000
L56093 39000
" />
<path d="M55906 38000
L56093 38000
" />
<path d="M55906 37000
L56093 37000
" />
<path d="M55906 36000
L56093 36000
" />
</g>
<g style="fill:#000000; fill-opacity:0.0; 
stroke:#000000; stroke-width:0; stroke-opacity:1; 
stroke-linecap:round; stroke-linejoin:round;">
</g>
<g style="fill:#000000; fill-opacity:1.0; 
stroke:#000000; stroke-width:0; stroke-opacity:1; 
stroke-linecap:round; stroke-linejoin:round;">
<path style="fill:#000000; fill-opacity:1.0; 
stroke:#000000; stroke-width:0; stroke-opacity:1; 
stroke-linecap:round; stroke-linejoin:round;fill-rule:evenodd;"
d="M 56258.4,34700.7
56273,34702.9
56287.2,34706.5
56301.1,34711.4
56314.4,34717.7
56327,34725.3
56338.9,34734
56349.8,34743.9
56359.7,34754.8
56368.4,34766.7
56376,34779.3
56382.3,34792.6
56387.2,34806.5
56390.8,34820.7
56393,34835.3
56393.7,34850
56393.7,35150
56393,35164.7
56390.8,35179.3
56387.2,35193.5
56382.3,35207.4
56376,35220.7
56368.4,35233.3
56359.7,35245.2
56349.8,35256.1
56338.9,35266
56327,35274.7
56314.4,35282.3
56301.1,35288.6
56287.2,35293.5
56273,35297.1
56258.4,35299.3
56243.7,35300
55756.3,35300
55741.6,35299.3
55727,35297.1
55712.8,35293.5
55698.9,35288.6
55685.6,35282.3
55673,35274.7
55661.1,35266
55650.2,35256.1
55640.3,35245.2
55631.6,35233.3
55624,35220.7
55617.7,35207.4
55612.8,35193.5
55609.2,35179.3
55607,35164.7
55606.3,35150
55606.3,34850
55607,34835.3
55609.2,34820.7
55612.8,34806.5
55617.7,34792.6
55624,34779.3
55631.6,34766.7
55640.3,34754.8
55650.2,34743.9
55661.1,34734
55673,34725.3
55685.6,34717.7
55698.9,34711.4
55712.8,34706.5
55727,34702.9
55741.6,34700.7
55756.3,34700
56243.7,34700
Z" /> 
</g>
<g style="fill:#000000; fill-opacity:1.0; 
stroke:#000000; stroke-width:600; stroke-opacity:1; 
stroke-linecap:round; stroke-linejoin:round;">
</g>
<g style="fill:#000000; fill-opacity:0.0; 
stroke:#000000; stroke-width:600; stroke-opacity:1; 
stroke-linecap:round; stroke-linejoin:round;">
<path d="M55906 34000
L56093 34000
" />
<path d="M55906 33000
L56093 33000
" />
<path d="M55906 32000
L56093 32000
" />
<path d="M55906 31000
L56093 31000
" />
<path d="M55906 30000
L56093 30000
" />
<path d="M55906 29000
L56093 29000
" />
<path d="M44906 43000
L45093 43000
" />
</g>
<g style="fill:#000000; fill-opacity:0.0; 
stroke:#000000; stroke-width:0; stroke-opacity:1; 
stroke-linecap:round; stroke-linejoin:round;">
</g>
<g style="fill:#000000; fill-opacity:1.0; 
stroke:#000000; stroke-width:0; stroke-opacity:1; 
stroke-linecap:round; stroke-linejoin:round;">
<path style="fill:#000000; fill-opacity:1.0; 
stroke:#000000; stroke-width:0; stroke-opacity:1; 
stroke-linecap:round; stroke-linejoin:round;fill-rule:evenodd;"
d="M 45258.4,41700.7
45273,41702.9
45287.2,41706.5
45301.1,41711.4
45314.4,41717.7
45327,41725.3
45338.9,41734
45349.8,41743.9
45359.7,41754.8
45368.4,41766.7
45376,41779.3
45382.3,41792.6
45387.2,41806.5
45390.8,41820.7
45393,41835.3
45393.7,41850
45393.7,42150
45393,42164.7
45390.8,42179.3
45387.2,42193.5
45382.3,42207.4
45376,42220.7
45368.4,42233.3
45359.7,42245.2
45349.8,42256.1
45338.9,42266
45327,42274.7
45314.4,42282.3
45301.1,42288.6
45287.2,42293.5
45273,42297.1
45258.4,42299.3
45243.7,42300
44756.3,42300
44741.6,42299.3
44727,42297.1
44712.8,42293.5
44698.9,42288.6
44685.6,42282.3
44673,42274.7
44661.1,42266
44650.2,42256.1
44640.3,42245.2
44631.6,42233.3
44624,42220.7
44617.7,42207.4
44612.8,42193.5
44609.2,42179.3
44607,42164.7
44606.3,42150
44606.3,41850
44607,41835.3
44609.2,41820.7
44612.8,41806.5
44617.7,41792.6
44624,41779.3
44631.6,41766.7
44640.3,41754.8
44650.2,41743.9
44661.1,41734
44673,41725.3
44685.6,41717.7
44698.9,41711.4
44712.8,41706.5
44727,41702.9
44741.6,41700.7
44756.3,41700
45243.7,41700
Z" /> 
</g>
<g style="fill:#000000; fill-opacity:1.0; 
stroke:#000000; stroke-width:600; stroke-opacity:1; 
stroke-linecap:round; stroke-linejoin:round;">
</g>
<g style="fill:#000000; fill-opacity:0.0; 
stroke:#000000; stroke-width:600; stroke-opacity:1; 
stroke-linecap:round; stroke-linejoin:round;">
<path d="M44906 41000
L45093 41000
" />
<path d="M44906 40000
L45093 40000
" />
<path d="M44906 39000
L45093 39000
" />
</g>
<g style="fill:#000000; fill-opacity:0.0; 
stroke:#000000; stroke-width:0; stroke-opacity:1; 
stroke-linecap:round; stroke-linejoin:round;">
</g>
<g style="fill:#000000; fill-opacity:1.0; 
stroke:#000000; stroke-width:0; stroke-opacity:1; 
stroke-linecap:round; stroke-linejoin:round;">
<path style="fill:#000000; fill-opacity:1.0; 
stroke:#000000; stroke-width:0; stroke-opacity:1; 
stroke-linecap:round; stroke-linejoin:round;fill-rule:evenodd;"
d="M 45258.4,37700.7
45273,37702.9
45287.2,37706.5
45301.1,37711.4
45314.4,37717.7
45327,37725.3
45338.9,37734
45349.8,37743.9
45359.7,37754.8
45368.4,37766.7
45376,37779.3
45382.3,37792.6
45387.2,37806.5
45390.8,37820.7
45393,37835.3
45393.7,37850
45393.7,38150
45393,38164.7
45390.8,38179.3
45387.2,38193.5
45382.3,38207.4
45376,38220.7
45368.4,38233.3
45359.7,38245.2
45349.8,38256.1
45338.9,38266
45327,38274.7
45314.4,38282.3
45301.1,38288.6
45287.2,38293.5
45273,38297.1
45258.4,38299.3
45243.7,38300
44756.3,38300
44741.6,38299.3
44727,38297.1
44712.8,38293.5
44698.9,38288.6
44685.6,38282.3
44673,38274.7
44661.1,38266
44650.2,38256.1
44640.3,38245.2
44631.6,38233.3
44624,38220.7
44617.7,38207.4
44612.8,38193.5
44609.2,38179.3
44607,38164.7
44606.3,38150
44606.3,37850
44607,37835.3
44609.2,37820.7
44612.8,37806.5
44617.7,37792.6
44624,37779.3
44631.6,37766.7
44640.3,37754.8
44650.2,37743.9
44661.1,37734
44673,37725.3
44685.6,37717.7
44698.9,37711.4
44712.8,37706.5
44727,37702.9
44741.6,37700.7
44756.3,37700
45243.7,37700
Z" /> 
</g>
<g style="fill:#000000; fill-opacity:1.0; 
stroke:#000000; stroke-width:600; stroke-opacity:1; 
stroke-linecap:round; stroke-linejoin:round;">
</g>
<g style="fill:#000000; fill-opacity:0.0; 
stroke:#000000; stroke-width:600; stroke-opacity:1; 
stroke-linecap:round; stroke-linejoin:round;">
<path d="M44906 37000
L45093 37000
" />
<path d="M44906 36000
L45093 36000
" />
<path d="M44906 35000
L45093 35000
" />
<path d="M44906 34000
L45093 34000
" />
<path d="M44906 33000
L45093 33000
" />
<path d="M44906 32000
L45093 32000
" />
<path d="M44906 31000
L45093 31000
" />
</g>
<g style="fill:#000000; fill-opacity:0.0; 
stroke:#000000; stroke-width:0; stroke-opacity:1; 
stroke-linecap:round; stroke-linejoin:round;">
</g>
<g style="fill:#000000; fill-opacity:1.0; 
stroke:#000000; stroke-width:0; stroke-opacity:1; 
stroke-linecap:round; stroke-linejoin:round;">
<path style="fill:#000000; fill-opacity:1.0; 
stroke:#000000; stroke-width:0; stroke-opacity:1; 
stroke-linecap:round; stroke-linejoin:round;fill-rule:evenodd;"
d="M 45258.4,29700.7
45273,29702.9
45287.2,29706.5
45301.1,29711.4
45314.4,29717.7
45327,29725.3
45338.9,29734
45349.8,29743.9
45359.7,29754.8
45368.4,29766.7
45376,29779.3
45382.3,29792.6
45387.2,29806.5
45390.8,29820.7
45393,29835.3
45393.7,29850
45393.7,30150
45393,30164.7
45390.8,30179.3
45387.2,30193.5
45382.3,30207.4
45376,30220.7
45368.4,30233.3
45359.7,30245.2
45349.8,30256.1
45338.9,30266
45327,30274.7
45314.4,30282.3
45301.1,30288.6
45287.2,30293.5
45273,30297.1
45258.4,30299.3
45243.7,30300
44756.3,30300
44741.6,30299.3
44727,30297.1
44712.8,30293.5
44698.9,30288.6
44685.6,30282.3
44673,30274.7
44661.1,30266
44650.2,30256.1
44640.3,30245.2
44631.6,30233.3
44624,30220.7
44617.7,30207.4
44612.8,30193.5
44609.2,30179.3
44607,30164.7
44606.3,30150
44606.3,29850
44607,29835.3
44609.2,29820.7
44612.8,29806.5
44617.7,29792.6
44624,29779.3
44631.6,29766.7
44640.3,29754.8
44650.2,29743.9
44661.1,29734
44673,29725.3
44685.6,29717.7
44698.9,29711.4
44712.8,29706.5
44727,29702.9
44741.6,29700.7
44756.3,29700
45243.7,29700
Z" /> 
</g>
<g style="fill:#000000; fill-opacity:1.0; 
stroke:#000000; stroke-width:600; stroke-opacity:1; 
stroke-linecap:round; stroke-linejoin:round;">
</g>
<g style="fill:#000000; fill-opacity:0.0; 
stroke:#000000; stroke-width:600; stroke-opacity:1; 
stroke-linecap:round; stroke-linejoin:round;">
<path d="M44906 29000
L45093 29000
" />
</g>
<g >
</g>
<g style="fill:#000000; fill-opacity:0.0; 
stroke:#000000; stroke-width:600; stroke-opacity:1; 
stroke-linecap:round; stroke-linejoin:round;">
</g>
<g style="fill:#000000; fill-opacity:1.0; 
stroke:#000000; stroke-width:0; stroke-opacity:1; 
stroke-linecap:round; stroke-linejoin:round;">
<circle cx="42000" cy="40000" r="393.701" /> 
</g>
<g style="fill:#000000; fill-opacity:1.0; 
stroke:#000000; stroke-width:39.3701; stroke-opacity:1; 
stroke-linecap:round; stroke-linejoin:round;">
</g>
<g style="fill:#000000; fill-opacity:1.0; 
stroke:#000000; stroke-width:0; stroke-opacity:1; 
stroke-linecap:round; stroke-linejoin:round;">
<circle cx="42000" cy="39000" r="393.701" /> 
</g>
<g style="fill:#000000; fill-opacity:1.0; 
stroke:#000000; stroke-width:39.3701; stroke-opacity:1; 
stroke-linecap:round; stroke-linejoin:round;">
</g>
<g style="fill:#000000; fill-opacity:1.0; 
stroke:#000000; stroke-width:0; stroke-opacity:1; 
stroke-linecap:round; stroke-linejoin:round;">
<circle cx="42000" cy="38000" r="393.701" /> 
</g>
<g style="fill:#000000; fill-opacity:1.0; 
stroke:#000000; stroke-width:39.3701; stroke-opacity:1; 
stroke-linecap:round; stroke-linejoin:round;">
</g>
<g style="fill:#000000; fill-opacity:1.0; 
stroke:#000000; stroke-width:0; stroke-opacity:1; 
stroke-linecap:round; stroke-linejoin:round;">
<circle cx="42000" cy="37000" r="393.701" /> 
</g>
<g style="fill:#000000; fill-opacity:1.0; 
stroke:#000000; stroke-width:39.3701; stroke-opacity:1; 
stroke-linecap:round; stroke-linejoin:round;">
</g>
<g style="fill:#000000; fill-opacity:1.0; 
stroke:#000000; stroke-width:0; stroke-opacity:1; 
stroke-linecap:round; stroke-linejoin:round;">
<circle cx="42000" cy="36000" r="393.701" /> 
</g>
<g style="fill:#000000; fill-opacity:1.0; 
stroke:#000000; stroke-width:39.3701; stroke-opacity:1; 
stroke-linecap:round; stroke-linejoin:round;">
</g>
<g style="fill:#000000; fill-opacity:1.0; 
stroke:#000000; stroke-width:0; stroke-opacity:1; 
stroke-linecap:round; stroke-linejoin:round;">
<circle cx="42000" cy="35000" r="393.701" /> 
</g>
<g style="fill:#000000; fill-opacity:1.0; 
stroke:#000000; stroke-width:39.3701; stroke-opacity:1; 
stroke-linecap:round; stroke-linejoin:round;">
</g>
<g style="fill:#000000; fill-opacity:1.0; 
stroke:#000000; stroke-width:0; stroke-opacity:1; 
stroke-linecap:round; stroke-linejoin:round;">
<circle cx="42000" cy="33000" r="393.701" /> 
</g>
<g style="fill:#000000; fill-opacity:1.0; 
stroke:#000000; stroke-width:39.3701; stroke-opacity:1; 
stroke-linecap:round; stroke-linejoin:round;">
</g>
<g style="fill:#000000; fill-opacity:1.0; 
stroke:#000000; stroke-width:0; stroke-opacity:1; 
stroke-linecap:round; stroke-linejoin:round;">
<circle cx="42000" cy="32000" r="393.701" /> 
</g>
<g style="fill:#000000; fill-opacity:1.0; 
stroke:#000000; stroke-width:39.3701; stroke-opacity:1; 
stroke-linecap:round; stroke-linejoin:round;">
</g>
<g style="fill:#000000; fill-opacity:1.0; 
stroke:#000000; stroke-width:0; stroke-opacity:1; 
stroke-linecap:round; stroke-linejoin:round;">
<circle cx="42000" cy="27000" r="393.701" /> 
</g>
<g style="fill:#000000; fill-opacity:1.0; 
stroke:#000000; stroke-width:39.3701; stroke-opacity:1; 
stroke-linecap:round; stroke-linejoin:round;">
</g>
<g style="fill:#000000; fill-opacity:1.0; 
stroke:#000000; stroke-width:0; stroke-opacity:1; 
stroke-linecap:round; stroke-linejoin:round;">
<circle cx="42000" cy="26000" r="393.701" /> 
</g>
<g style="fill:#000000; fill-opacity:1.0; 
stroke:#000000; stroke-width:39.3701; stroke-opacity:1; 
stroke-linecap:round; stroke-linejoin:round;">
</g>
<g style="fill:#000000; fill-opacity:1.0; 
stroke:#000000; stroke-width:0; stroke-opacity:1; 
stroke-linecap:round; stroke-linejoin:round;">
<circle cx="42000" cy="29500" r="393.701" /> 
</g>
<g style="fill:#000000; fill-opacity:1.0; 
stroke:#000000; stroke-width:39.3701; stroke-opacity:1; 
stroke-linecap:round; stroke-linejoin:round;">
</g>
<g style="fill:#000000; fill-opacity:1.0; 
stroke:#000000; stroke-width:0; stroke-opacity:1; 
stroke-linecap:round; stroke-linejoin:round;">
<circle cx="36000" cy="29500" r="393.701" /> 
</g>
<g style="fill:#000000; fill-opacity:1.0; 
stroke:#000000; stroke-width:39.3701; stroke-opacity:1; 
stroke-linecap:round; stroke-linejoin:round;">
</g>
<g >
</g>
<g style="fill:#000000; fill-opacity:1.0; 
stroke:#000000; stroke-width:39.3701; stroke-opacity:1; 
stroke-linecap:round; stroke-linejoin:round;">
</g>
<g style="fill:#000000; fill-opacity:1.0; 
stroke:#000000; stroke-width:196.85; stroke-opacity:1; 
stroke-linecap:round; stroke-linejoin:round;">
</g>
<g style="fill:#000000; fill-opacity:0.0; 
stroke:#000000; stroke-width:196.85; stroke-opacity:1; 
stroke-linecap:round; stroke-linejoin:round;">
<path d="M42000 43000
L45000 43000
" />
<path d="M45000 39000
L44500 39000
" />
<path d="M44500 39000
L44000 38500
" />
<path d="M42000 35000
L44000 37000
" />
<path d="M44000 38500
L44000 37000
" />
<path d="M56000 30000
L57000 29000
" />
<path d="M57000 29000
L57000 28500
" />
<path d="M57000 28500
L56500 28000
" />
<path d="M56500 28000
L44500 28000
" />
<path d="M57500 28000
L57500 29500
" />
<path d="M57000 27500
L57500 28000
" />
<path d="M57500 29500
L56000 31000
" />
<path d="M44000 27500
L57000 27500
" />
<path d="M56000 36000
L56500 36000
" />
<path d="M56500 36000
L58000 34500
" />
<path d="M58000 34500
L58000 28000
" />
<path d="M57000 27000
L42000 27000
" />
<path d="M58000 28000
L57000 27000
" />
<path d="M42000 33000
L44000 35000
" />
<path d="M44000 35000
L44000 37000
" />
<path d="M42000 32000
L45000 29000
" />
<path d="M42000 29500
L42000 32000
" />
</g>
<g >
</g>
</g> 
</svg>
